<svg width="24" height="24" viewBox="0 0 24 24" fill="none" xmlns="http://www.w3.org/2000/svg">
<path d="M12 22C7.993 22 5.99 22 4.745 20.682C3.5 19.364 3.5 17.242 3.5 13C3.5 8.758 3.5 6.636 4.745 5.318C5.99 4 7.993 4 12 4C16.007 4 18.01 4 19.255 5.318C20.5 6.636 20.5 8.758 20.5 13C20.5 17.242 20.5 19.364 19.255 20.682C18.01 22 16.007 22 12 22Z" stroke="black" stroke-width="1.5" stroke-linecap="round" stroke-linejoin="round"/>
<path d="M8 4V2M16 4V2" stroke="black" stroke-width="1.5" stroke-linecap="round"/>
<path d="M14.018 9.49292C14.018 10.0234 13.8073 10.5321 13.4322 10.9071C13.0571 11.2822 12.5484 11.4929 12.018 11.4929C11.4876 11.4929 10.9789 11.2822 10.6038 10.9071C10.2287 10.5321 10.018 10.0234 10.018 9.49292C10.018 8.96249 10.2287 8.45378 10.6038 8.07871C10.9789 7.70363 11.4876 7.49292 12.018 7.49292C12.5484 7.49292 13.0571 7.70363 13.4322 8.07871C13.8073 8.45378 14.018 8.96249 14.018 9.49292ZM8.06299 16.7159C9.12099 15.0859 10.802 14.4759 12.018 14.4769C13.234 14.4779 14.866 15.0869 15.924 16.7169C15.992 16.8219 16.011 16.9509 15.949 17.0609C15.702 17.4999 14.933 18.3709 14.379 18.4299C13.741 18.4969 12.072 18.5069 12.019 18.5069C11.966 18.5069 10.247 18.4969 9.609 18.4299C9.053 18.3699 8.28499 17.4999 8.03699 17.0599C7.97599 16.9509 7.99499 16.8219 8.06299 16.7159Z" stroke="black" stroke-width="1.5" stroke-linecap="round" stroke-linejoin="round"/>
</svg>
