<svg width="24" height="24" viewBox="0 0 24 24" fill="none" xmlns="http://www.w3.org/2000/svg">
<path d="M12.593 23.258L12.582 23.26L12.511 23.295L12.491 23.299L12.477 23.295L12.406 23.26C12.3953 23.2567 12.3873 23.2583 12.382 23.265L12.378 23.275L12.361 23.703L12.366 23.723L12.376 23.736L12.48 23.81L12.495 23.814L12.507 23.81L12.611 23.736L12.623 23.72L12.627 23.703L12.61 23.276C12.6073 23.2653 12.6017 23.2593 12.593 23.258ZM12.858 23.145L12.845 23.147L12.66 23.24L12.65 23.25L12.647 23.261L12.665 23.691L12.67 23.703L12.678 23.71L12.879 23.803C12.8917 23.8063 12.9013 23.8037 12.908 23.795L12.912 23.781L12.878 23.167C12.8747 23.155 12.868 23.1477 12.858 23.145ZM12.143 23.147C12.1386 23.1443 12.1333 23.1435 12.1283 23.1446C12.1233 23.1457 12.1188 23.1487 12.116 23.153L12.11 23.167L12.076 23.781C12.0767 23.793 12.0823 23.801 12.093 23.805L12.108 23.803L12.309 23.71L12.319 23.702L12.323 23.691L12.34 23.261L12.337 23.249L12.327 23.239L12.143 23.147Z" fill="black"/>
<path d="M12 11C12.2652 11 12.5196 11.1054 12.7071 11.2929C12.8946 11.4804 13 11.7348 13 12V18.584L14.293 17.292C14.4808 17.1045 14.7353 16.9993 15.0007 16.9994C15.2661 16.9996 15.5205 17.1052 15.708 17.293C15.8955 17.4808 16.0007 17.7353 16.0006 18.0007C16.0004 18.2661 15.8948 18.5205 15.707 18.708L12.883 21.527C12.63 21.779 12.383 22 12 22C11.664 22 11.434 21.831 11.212 21.62L8.293 18.708C8.10522 18.5205 7.99963 18.2661 7.99944 18.0007C7.99925 17.7353 8.10449 17.4808 8.292 17.293C8.4795 17.1052 8.73393 16.9996 8.99929 16.9994C9.26465 16.9993 9.51922 17.1045 9.707 17.292L11 18.584V12C11 11.7348 11.1054 11.4804 11.2929 11.2929C11.4804 11.1054 11.7348 11 12 11ZM11.5 2C14.284 2 16.66 3.75 17.586 6.212C18.8196 6.55118 19.9125 7.27559 20.7055 8.2796C21.4984 9.2836 21.9499 10.5147 21.994 11.7933C22.0381 13.0719 21.6725 14.3311 20.9506 15.3874C20.2287 16.4436 19.1883 17.2416 17.981 17.665C17.9053 16.99 17.6028 16.3607 17.123 15.88C16.6113 15.3675 15.9315 15.0574 15.209 15.007L15 15V12C15.0007 11.2191 14.697 10.4687 14.1532 9.90818C13.6095 9.34769 12.8686 9.02132 12.088 8.9984C11.3075 8.97548 10.5487 9.25784 9.97303 9.78546C9.39733 10.3131 9.05006 11.0444 9.005 11.824L9 12V15C8.60566 15 8.21518 15.0777 7.85089 15.2287C7.48661 15.3796 7.15566 15.601 6.877 15.88C6.3399 16.4181 6.02716 17.1401 6.002 17.9C4.96092 17.6873 4.01464 17.1485 3.30032 16.3619C2.58599 15.5752 2.14074 14.5815 2.02909 13.5248C1.91745 12.4681 2.14522 11.4033 2.67939 10.4847C3.21355 9.56618 4.02636 8.84159 5 8.416C5.02209 6.70669 5.71665 5.07489 6.93325 3.87401C8.14985 2.67313 9.79054 1.99986 11.5 2Z" fill="black"/>
</svg>
