<svg width="24" height="24" viewBox="0 0 24 24" fill="none" xmlns="http://www.w3.org/2000/svg">
<path d="M13 5V3H21V11H19V6.414L13.636 11.778C13.4474 11.9602 13.1948 12.061 12.9326 12.0587C12.6704 12.0564 12.4196 11.9512 12.2342 11.7658C12.0488 11.5804 11.9436 11.3296 11.9413 11.0674C11.939 10.8052 12.0398 10.5526 12.222 10.364L17.586 5H13Z" fill="black"/>
<path fill-rule="evenodd" clip-rule="evenodd" d="M5 13C4.46957 13 3.96086 13.2107 3.58579 13.5858C3.21071 13.9609 3 14.4696 3 15V19C3 19.5304 3.21071 20.0391 3.58579 20.4142C3.96086 20.7893 4.46957 21 5 21H9C9.53043 21 10.0391 20.7893 10.4142 20.4142C10.7893 20.0391 11 19.5304 11 19V15C11 14.4696 10.7893 13.9609 10.4142 13.5858C10.0391 13.2107 9.53043 13 9 13H5ZM5 15V19H9V15H5Z" fill="black"/>
</svg>
